<svg xmlns="http://www.w3.org/2000/svg" width="330" height="79.0581587257644" viewBox="0 0 333.93137944909483 80" class="css-1j8o68f"><defs id="SvgjsDefs1370"></defs><g id="SvgjsG1371" featurekey="nRdZyp-0" transform="matrix(0.8888888888888888,0,0,0.8888888888888888,-4.444444444444445,-4.444444444444445)" fill="#000000"><path xmlns="http://www.w3.org/2000/svg" d="M46.4,58L46.4,58c-0.1,0-0.1,0-0.1,0v0H33.5v-6.3h12.9H47v0c16.9,0.2,32.2,7.5,42.9,19C93.1,64.6,95,57.5,95,50  c0-7.6-1.9-14.8-5.2-21C79.1,40.4,63.9,47.7,47,47.8v0h-0.6H33.5v-6.3h12.8v0c0,0,0.1,0,0.1,0h0.1c15.9,0,30.1-7,39.8-18.1  c-0.9-1.2-1.8-2.3-2.7-3.4C74.7,30.4,61.6,37,47,37.1v0h-0.4H33.5v-6.3h12.8h0.4c13,0,24.6-5.9,32.4-15.2c-1.1-0.9-2.2-1.8-3.4-2.6  C68.7,21.2,58.5,26.4,47,26.5v0H33.5v-6.3h12.8h0.4c9.3,0,17.7-4.1,23.5-10.5C64,6.7,57.2,5,50,5C25.1,5,5,25.1,5,50  c0,24.9,20.1,45,45,45c7.3,0,14.2-1.8,20.4-4.9c-5.8-6.6-14.3-10.7-23.7-10.7h-0.4H33.5v-6.3H47v0c11.6,0.1,21.9,5.4,28.8,13.7  c1.2-0.8,2.3-1.7,3.4-2.6c-7.8-9.4-19.5-15.4-32.6-15.4h-0.4H33.5v-6.3h13.1H47v0c14.7,0.1,27.9,6.8,36.7,17.2  c1-1.1,1.9-2.2,2.7-3.4C76.7,65.2,62.4,58,46.4,58z M27.4,79.3c-1.7,0-3.1-1.4-3.1-3.1c0-1.7,1.4-3.1,3.1-3.1c1.7,0,3.1,1.4,3.1,3.1  C30.5,77.9,29.1,79.3,27.4,79.3z M27.4,68.8c-1.7,0-3.1-1.4-3.1-3.1c0-1.7,1.4-3.1,3.1-3.1c1.7,0,3.1,1.4,3.1,3.1  C30.5,67.4,29.1,68.8,27.4,68.8z M27.4,58c-1.7,0-3.1-1.4-3.1-3.1c0-1.7,1.4-3.1,3.1-3.1c1.7,0,3.1,1.4,3.1,3.1  C30.5,56.6,29.1,58,27.4,58z M27.4,47.9c-1.7,0-3.1-1.4-3.1-3.1c0-1.7,1.4-3.1,3.1-3.1c1.7,0,3.1,1.4,3.1,3.1  C30.5,46.5,29.1,47.9,27.4,47.9z M27.4,37.1c-1.7,0-3.1-1.4-3.1-3.1c0-1.7,1.4-3.1,3.1-3.1c1.7,0,3.1,1.4,3.1,3.1  C30.5,35.7,29.1,37.1,27.4,37.1z M27.4,26.5c-1.7,0-3.1-1.4-3.1-3.1c0-1.7,1.4-3.1,3.1-3.1c1.7,0,3.1,1.4,3.1,3.1  C30.5,25.1,29.1,26.5,27.4,26.5z"></path></g><g id="SvgjsG1372" featurekey="Q4qmbg-0" transform="matrix(3.4446764366187845,0,0,3.4446764366187845,101.27974971125967,-11.876823653273483)" fill="#000000"><path d="M11.12 15.08 c0 2.92 -1.94 5.08 -4.84 5.08 c-0.6 0 -1.78 -0.36 -2.24 -0.82 l0 5.3 l-2.96 0 l0 -14.52 l2.96 0 l0 0.7 c0.42 -0.5 1.18 -0.84 2.04 -0.84 c2.9 0 5.04 2.18 5.04 5.1 z M8.14 15.08 c0 -1.58 -1.02 -2.86 -2.26 -2.86 c-0.76 0 -1.5 0.56 -1.9 1.36 c-0.18 0.4 -0.32 0.96 -0.32 1.5 c0 0.56 0.12 1.06 0.32 1.48 c0.42 0.82 1.12 1.36 1.9 1.36 c1.24 0 2.26 -1.28 2.26 -2.84 z M28.40389583333333 20 l-2.98 0 l0 -5.64 c0 -1.52 -0.42 -2.16 -1.54 -2.16 c-1.2 0 -1.9 0.64 -1.9 2.16 l0 5.64 l-2.98 0 l0 -5.64 c0 -1.52 -0.4 -2.16 -1.54 -2.16 c-1.2 0 -1.92 0.64 -1.92 2.16 l0 5.64 l-2.96 0 l0 -9.88 l2.96 0 l0 0.9 c0.7 -0.7 1.76 -1.04 2.7 -1.04 c1.4 0 2.3 0.52 2.94 1.34 c0.54 -0.66 1.7 -1.26 3.44 -1.34 c2.78 0 3.78 1.32 3.78 4.38 l0 5.64 z M29.727791666666665 15.08 c0 -2.92 1.92 -5.1 4.82 -5.1 c0.64 0 1.9 0.34 2.24 0.82 l0 -5.32 l2.98 0 l0 14.52 l-2.98 0 l0 -0.66 c-0.36 0.46 -1.38 0.82 -2.04 0.82 c-2.9 0 -5.02 -2.16 -5.02 -5.08 z M32.707791666666665 15.08 c0 1.56 1 2.84 2.24 2.84 c1.36 0 2.24 -1.52 2.24 -2.84 s-0.86 -2.86 -2.24 -2.86 c-1.24 0 -2.24 1.28 -2.24 2.86 z M43.571687499999996 13.04 l-2.2 -1.26 c1.1 -1.24 2.58 -1.82 4.12 -1.82 c2.96 0 4.16 1.62 4.16 3.14 l0 6.9 l-2.96 0 l0 -0.7 c-0.46 0.48 -1.28 0.84 -2.2 0.84 c-2.7 0 -3.74 -1.2 -3.74 -3.04 c0 -2.08 1.68 -3.48 4.4 -3.48 l1.54 0 c0 -0.74 -0.56 -1.22 -1.4 -1.22 c-0.86 0 -1.28 0.16 -1.72 0.64 z M46.6916875 16.740000000000002 l0 -0.88 l-1.74 0 c-0.78 0 -1.36 0.54 -1.24 1.3 c0.08 0.54 0.56 0.76 1.24 0.76 c1.3 0 1.74 -0.74 1.74 -1.18 z M54.95558333333334 15.8 c0 0.72 -0.02 1.92 1.08 1.92 c0.54 0 0.88 -0.22 1.26 -0.5 l0 2.44 c-0.46 0.26 -1.02 0.5 -1.62 0.5 c-2.54 0 -3.68 -1.08 -3.68 -4.36 l0 -3.24 l-1.1 0 l0 -2.44 l1.1 0 l0 -2.84 l2.96 0 l0 2.84 l2.34 0 l0 2.44 l-2.34 0 l0 3.24 z M61.45947916666666 13.04 l-2.2 -1.26 c1.1 -1.24 2.58 -1.82 4.12 -1.82 c2.96 0 4.16 1.62 4.16 3.14 l0 6.9 l-2.96 0 l0 -0.7 c-0.46 0.48 -1.28 0.84 -2.2 0.84 c-2.7 0 -3.74 -1.2 -3.74 -3.04 c0 -2.08 1.68 -3.48 4.4 -3.48 l1.54 0 c0 -0.74 -0.56 -1.22 -1.4 -1.22 c-0.86 0 -1.28 0.16 -1.72 0.64 z M64.57947916666666 16.740000000000002 l0 -0.88 l-1.74 0 c-0.78 0 -1.36 0.54 -1.24 1.3 c0.08 0.54 0.56 0.76 1.24 0.76 c1.3 0 1.74 -0.74 1.74 -1.18 z"></path></g></svg>